:FULLY-SPECIFIED
:FORCE-ALL-JOINTS-BE-3DOF
:DEGREES
815
root 1.96192 16.713 22.541 5.00468 1.83111 353.518
lfemur -39.698 0.559225 -0.281321
ltibia 21.8073 0 0
lfoot -9.19832 6.66918 0
ltoes 14.4502 0 0
rfemur 0.5095 4.78051 21.9255
rtibia 22.8266 0 0
rfoot -22.2666 -10.1812 0
rtoes -21.9747 0 0
lowerback 0.914862 5.90682 5.67842
upperback -0.0805568 7.93448 -0.323897
thorax 0.21885 3.97185 -3.47822
lowerneck -5.96449 -1.68415 2.87207
upperneck -0.924203 -2.43981 1.36072
head 0.681354 -1.20397 -0.11296
lclavicle 8.26944e-14 1.07344e-14 0
lhumerus -53.0701 -7.31291 91.7935
lradius 53.9866 0 0
lwrist 19.7939 0 0
lhand -11.2722 5.17551 0
lfingers 7.12502 0 0
lthumb 14.7583 34.6301 0
rclavicle 8.26944e-14 1.07344e-14 0
rhumerus -30.9049 45.5457 -111.566
rradius 67.6532 0 0
rwrist -0.988598 0 0
rhand -11.2537 -25.3793 0
rfingers 7.12502 0 0
rthumb 14.7761 -774.833 0
816
root 1.96811 16.7099 22.5687 5.00244 1.61597 353.483
lfemur -39.6251 0.582597 -0.198156
ltibia 21.6392 0 0
lfoot -9.12233 6.83875 0
ltoes 14.544 0 0
rfemur 0.665476 4.82569 21.9257
rtibia 22.6948 0 0
rfoot -22.2508 -10.2043 0
rtoes -22.1218 0 0
lowerback 0.885184 5.93049 5.69302
upperback -0.0881138 7.96461 -0.311111
thorax 0.230483 3.98699 -3.46925
lowerneck -5.95635 -1.66933 2.8917
upperneck -0.892265 -2.4217 1.35258
head 0.689781 -1.19457 -0.118434
lclavicle 8.18714e-14 1.07695e-14 0
lhumerus -53.0803 -7.27673 91.7601
lradius 53.912 0 0
lwrist 19.7273 0 0
lhand -11.1949 5.19271 0
lfingers 7.12502 0 0
lthumb 14.8326 34.6402 0
rclavicle 8.18714e-14 1.07695e-14 0
rhumerus -30.8608 45.5321 -111.468
rradius 67.6235 0 0
rwrist -1.03896 0 0
rhand -11.1341 -25.2953 0
rfingers 7.12502 0 0
rthumb 14.8913 -774.741 0
817
root 1.98522 16.6998 22.6464 4.99213 1.01582 353.385
lfemur -39.4039 0.657271 0.0287596
ltibia 21.2416 0 0
lfoot -8.92243 7.34655 0
ltoes 14.8624 0 0
rfemur 1.1305 4.93958 21.9302
rtibia 22.2974 0 0
rfoot -22.2372 -10.3168 0
rtoes -22.5811 0 0
lowerback 0.798724 6.00149 5.73352
upperback -0.11173 8.05483 -0.276711
thorax 0.263064 4.03225 -3.44447
lowerneck -5.92941 -1.62781 2.94785
upperneck -0.797581 -2.37091 1.33058
head 0.714315 -1.1681 -0.133653
lclavicle 7.87201e-14 1.08479e-14 0
lhumerus -53.1223 -7.16548 91.6573
lradius 53.7192 0 0
lwrist 19.542 0 0
lhand -10.9421 5.23653 0
lfingers 7.12502 0 0
lthumb 15.0758 34.6608 0
rclavicle 7.87201e-14 1.08479e-14 0
rhumerus -30.7323 45.5005 -111.193
rradius 67.5533 0 0
rwrist -1.18137 0 0
rhand -10.7705 -25.0416 0
rfingers 7.12502 0 0
rthumb 15.2416 -774.462 0
818
root 2.01139 16.6819 22.7661 4.96805 0.100814 353.232
lfemur -39.0357 0.78571 0.364477
ltibia 20.7542 0 0
lfoot -8.63556 8.17349 0
ltoes 15.4346 0 0
rfemur 1.88724 5.0903 21.9405
rtibia 21.6522 0 0
rfoot -22.2593 -10.5618 0
rtoes -23.3639 0 0
lowerback 0.660382 6.11773 5.79412
upperback -0.152035 8.20222 -0.226057
thorax 0.312907 4.10606 -3.40632
lowerneck -5.88155 -1.56458 3.03579
upperneck -0.64224 -2.29358 1.29823
head 0.754023 -1.12761 -0.156828
lclavicle 7.25118e-14 1.0936e-14 0
lhumerus -53.2086 -6.97818 91.4836
lradius 53.4502 0 0
lwrist 19.2592 0 0
lhand -10.4948 5.29673 0
lfingers 7.12502 0 0
lthumb 15.506 34.6798 0
rclavicle 7.25118e-14 1.0936e-14 0
rhumerus -30.528 45.4589 -110.763
rradius 67.4651 0 0
rwrist -1.39998 0 0
rhand -10.1717 -24.623 0
rfingers 7.12502 0 0
rthumb 15.8183 -774 0
819
root 2.04511 16.6561 22.9208 4.92404 -1.05588 353.037
lfemur -38.5291 0.964534 0.772604
ltibia 20.2896 0 0
lfoot -8.29175 9.27686 0
ltoes 16.2555 0 0
rfemur 2.90103 5.24671 21.9511
rtibia 20.8045 0 0
rfoot -22.3278 -10.9548 0
rtoes -24.4603 0 0
lowerback 0.476445 6.27426 5.86789
upperback -0.208608 8.40033 -0.163729
thorax 0.376052 4.20512 -3.35632
lowerneck -5.81281 -1.48546 3.14991
upperneck -0.428863 -2.19698 1.25876
head 0.808213 -1.07668 -0.186184
lclavicle 6.29107e-14 1.101e-14 0
lhumerus -53.3463 -6.71808 91.2412
lradius 53.1402 0 0
lwrist 18.9007 0 0
lhand -9.85126 5.36488 0
lfingers 7.12502 0 0
lthumb 16.125 34.6885 0
rclavicle 6.29107e-14 1.101e-14 0
rhumerus -30.2612 45.407 -110.198
rradius 67.3734 0 0
rwrist -1.67516 0 0
rhand -9.36857 -24.0541 0
rfingers 7.12502 0 0
rthumb 16.5918 -773.373 0
820
root 2.0853 16.6229 23.1036 4.85348 -2.37807 352.813
lfemur -37.9002 1.18453 1.21531
ltibia 19.9339 0 0
lfoot -7.91415 10.5903 0
ltoes 17.2851 0 0
rfemur 4.11994 5.37841 21.9503
rtibia 19.8268 0 0
rfoot -22.4304 -11.4826 0
rtoes -25.8393 0 0
lowerback 0.254592 6.46336 5.94674
upperback -0.27998 8.63917 -0.093536
thorax 0.448264 4.32437 -3.295
lowerneck -5.72538 -1.39706 3.28376
upperneck -0.160601 -2.08955 1.2152
head 0.876436 -1.01952 -0.219961
lclavicle 4.99737e-14 1.10555e-14 0
lhumerus -53.5364 -6.39257 90.9358
lradius 52.8175 0 0
lwrist 18.4877 0 0
lhand -9.02636 5.43437 0
lfingers 7.12502 0 0
lthumb 16.9184 34.6817 0
rclavicle 4.99737e-14 1.10555e-14 0
rhumerus -29.9492 45.3368 -109.509
rradius 67.2843 0 0
rwrist -1.98348 0 0
rhand -8.41336 -23.3587 0
rfingers 7.12502 0 0
rthumb 17.5115 -772.605 0
821
root 2.13124 16.5834 23.3087 4.74929 -3.78656 352.576
lfemur -37.1721 1.43064 1.65332
ltibia 19.746 0 0
lfoot -7.51901 12.0238 0
ltoes 18.4493 0 0
rfemur 5.47469 5.45576 21.9194
rtibia 18.819 0 0
rfoot -22.5322 -12.1042 0
rtoes -27.4486 0 0
lowerback 0.00388879 6.67446 6.02144
upperback -0.363629 8.90522 -0.0185071
thorax 0.52503 4.45703 -3.22193
lowerneck -5.62365 -1.3068 3.43003
upperneck 0.158868 -1.98086 1.17032
head 0.95849 -0.960853 -0.256419
lclavicle 3.41505e-14 1.10677e-14 0
lhumerus -53.7747 -6.01327 90.5763
lradius 52.5042 0 0
lwrist 18.0421 0 0
lhand -8.05199 5.50046 0
lfingers 7.12502 0 0
lthumb 17.8555 34.6575 0
rclavicle 3.41505e-14 1.10677e-14 0
rhumerus -29.6135 45.2322 -108.702
rradius 67.1963 0 0
rwrist -2.29777 0 0
rhand -7.38026 -22.5703 0
rfingers 7.12502 0 0
rthumb 18.5062 -771.737 0
822
root 2.18262 16.5391 23.5307 4.60394 -5.19912 352.344
lfemur -36.3749 1.68199 2.04593
ltibia 19.7579 0 0
lfoot -7.1157 13.4639 0
ltoes 19.639 0 0
rfemur 6.87871 5.44988 21.8335
rtibia 17.9085 0 0
rfoot -22.5752 -12.7504 0
rtoes -29.2151 0 0
lowerback -0.26521 6.89418 6.08163
upperback -0.455986 9.18141 0.0591026
thorax 0.601566 4.59456 -3.13572
lowerneck -5.51417 -1.22292 3.58056
upperneck 0.525332 -1.88163 1.12667
head 1.05441 -0.906026 -0.293829
lclavicle 1.62835e-14 1.10515e-14 0
lhumerus -54.051 -5.59594 90.1756
lradius 52.2156 0 0
lwrist 17.5853 0 0
lhand -6.97693 5.56022 0
lfingers 7.12502 0 0
lthumb 18.8895 34.6176 0
rclavicle 1.62835e-14 1.10515e-14 0
rhumerus -29.2802 45.069 -107.779
rradius 67.0992 0 0
rwrist -2.58703 0 0
rhand -6.36514 -21.7322 0
rfingers 7.12502 0 0
rthumb 19.4833 -770.817 0
823
root 2.2395 16.4924 23.7647 4.40945 -6.53051 352.138
lfemur -35.5464 1.91183 2.35097
ltibia 19.9749 0 0
lfoot -6.70668 14.7732 0
ltoes 20.7107 0 0
rfemur 8.22812 5.33262 21.6609
rtibia 17.2503 0 0
rfoot -22.4788 -13.3238 0
rtoes -31.0443 0 0
lowerback -0.540861 7.10633 6.11577
upperback -0.552429 9.44713 0.137814
thorax 0.672809 4.7267 -3.03401
lowerneck -5.40565 -1.15446 3.72631
upperneck 0.934051 -1.8037 1.08656
head 1.16449 -0.860933 -0.33048
lclavicle -2.39198e-15 1.10211e-14 0
lhumerus -54.3496 -5.16056 89.7496
lradius 51.9601 0 0
lwrist 17.139 0 0
lhand -5.86686 5.61256 0
lfingers 7.12502 0 0
lthumb 19.9572 34.567 0
rclavicle -2.39198e-15 1.10211e-14 0
rhumerus -28.9793 44.8153 -106.735
rradius 66.9753 0 0
rwrist -2.81653 0 0
rhand -5.4856 -20.897 0
rfingers 7.12502 0 0
rthumb 20.3297 -769.906 0
824
root 2.30234 16.4461 24.0067 4.15736 -7.69249 351.979
lfemur -34.7314 2.0876 2.52485
ltibia 20.3752 0 0
lfoot -6.28752 15.7909 0
ltoes 21.4865 0 0
rfemur 9.40172 5.0766 21.3634
rtibia 17.0264 0 0
rfoot -22.1394 -13.6987 0
rtoes -32.8206 0 0
lowerback -0.809831 7.29189 6.11122
upperback -0.647289 9.67826 0.216923
thorax 0.733422 4.84143 -2.91349
lowerneck -5.30898 -1.11127 3.85743
upperneck 1.37976 -1.76009 1.05207
head 1.28926 -0.832049 -0.364678
lclavicle -2.02479e-14 1.10005e-14 0
lhumerus -54.6489 -4.73125 89.3181
lradius 51.7398 0 0
lwrist 16.7248 0 0
lhand -4.80437 5.65823 0
lfingers 7.12502 0 0
lthumb 20.979 34.5141 0
rclavicle -2.02479e-14 1.10005e-14 0
rhumerus -28.7455 44.4308 -105.559
rradius 66.7984 0 0
rwrist -2.94771 0 0
rhand -4.88098 -20.1269 0
rfingers 7.12502 0 0
rthumb 20.911 -769.076 0
